<?xml version="1.0" encoding="utf-8"?>
<!-- Generator: Adobe Illustrator 17.1.0, SVG Export Plug-In . SVG Version: 6.00 Build 0)  -->
<!DOCTYPE svg PUBLIC "-//W3C//DTD SVG 1.1//EN" "http://www.w3.org/Graphics/SVG/1.1/DTD/svg11.dtd">
<svg version="1.1" id="Layer_1" xmlns="http://www.w3.org/2000/svg" xmlns:xlink="http://www.w3.org/1999/xlink" x="0px" y="0px"
	 viewBox="0 0 89.3 26.5" enable-background="new 0 0 89.3 26.5" xml:space="preserve">
<g>
	<g>
		<path fill="#FFFFFF" d="M31.9,10.8v1c0.5-0.9,1.6-1.8,3.1-1.8c2.3,0,4.2,2,4.2,4.5v2.4c0,2.4-1.9,4.5-4.1,4.5
			c-1.4,0-2.6-0.9-3.1-1.8v6.3c0,0.3-0.4,0.7-1,0.7c-0.6,0-1-0.3-1-0.7v-15c0-0.4,0.4-0.7,0.9-0.7C31.5,10.1,31.9,10.4,31.9,10.8z
			 M37.3,14.4c0-1.4-1.2-2.7-2.7-2.7c-1.3,0-2.6,1-2.6,2.7v3c0,0.6,1.1,2.1,2.6,2.1c1.4,0,2.7-1.4,2.7-2.8V14.4z"/>
		<path fill="#FFFFFF" d="M45,4.1v16.3c0,0.3-0.4,0.7-1,0.7c-0.6,0-1-0.3-1-0.7V4.1c0-0.4,0.4-0.7,1-0.7C44.5,3.4,45,3.7,45,4.1z"/>
		<path fill="#FFFFFF" d="M57,14.5v6c0,0.4-0.4,0.7-1,0.7c-0.5,0-0.9-0.3-0.9-0.7v-0.9c-0.8,0.9-2,1.8-3.5,1.8c-1.7,0-3.1-1-3.1-3.1
			c0-2.6,2.2-3.2,5.5-3.2H55v-0.5c0-1.4-0.7-2.9-2.6-2.9c-1.6,0-2.1,0.7-2.5,0.7c-0.5,0-0.7-0.6-0.7-1c0-0.7,1.8-1.4,3.3-1.4
			C55.8,10,57,12.1,57,14.5z M55,16.2h-0.8c-2,0-3.8,0.2-3.8,1.8c0,1.2,0.8,1.7,1.8,1.7c1.3,0,2.8-1.3,2.8-2.4V16.2z"/>
		<path fill="#FFFFFF" d="M59.7,11.1c0-0.1-0.1-0.2-0.1-0.3c0-0.5,0.7-0.9,1.3-0.9c0.3,0,0.5,0.1,0.6,0.4l3.1,8.1l2.8-8.1
			c0.1-0.3,0.3-0.4,0.6-0.4c0.5,0,1.3,0.4,1.3,1c0,0.1,0,0.2-0.1,0.2l-3.5,9.5c-1,2.6-2.1,5.8-5.1,5.8c-0.5,0-0.9-0.2-0.9-0.9
			c0-0.4,0.1-0.8,0.6-0.8c1.4,0,2.9-1.7,3.4-4.2L59.7,11.1z"/>
		<path fill="#FFFFFF" d="M74.1,17.6c0,1.3,0.5,1.8,1.9,1.8h0.7c0.5,0,0.8,0.4,0.8,0.8c0,0.4-0.3,0.9-0.8,0.9H76
			c-2.5,0-3.9-1.1-3.9-3.5v-12c0-0.4,0.5-0.7,1-0.7c0.5,0,1,0.3,1,0.7v4.5H77c0.3,0,0.6,0.4,0.6,0.8c0,0.4-0.2,0.7-0.6,0.7h-2.9
			V17.6z"/>
		<path fill="#FFFFFF" d="M89.3,14.4v2.4c0,2.4-2.1,4.5-4.6,4.5c-2.5,0-4.6-2.1-4.6-4.5v-2.4c0-2.4,2.1-4.5,4.6-4.5
			C87.2,10,89.3,12,89.3,14.4z M87.4,14.4c0-1.4-1.2-2.7-2.7-2.7c-1.5,0-2.7,1.4-2.7,2.7v2.4c0,1.4,1.2,2.8,2.7,2.8
			c1.5,0,2.7-1.4,2.7-2.8V14.4z"/>
	</g>
	<g>
		<g>
			<path fill="#FFFFFF" d="M17.4,4L21,8l-1.7,5.1l-5.2,1.1l-3.6-4l1.7-5.1L17.4,4 M17.7,3.1l-0.5,0.1L12,4.3l-0.5,0.1l-0.1,0.4
				L9.8,10l-0.1,0.4l0.3,0.3l3.6,4l0.3,0.3l0.5-0.1l5.2-1.1l0.5-0.1l0.1-0.4l1.7-5.1l0.1-0.4l-0.3-0.3l-3.6-4L17.7,3.1L17.7,3.1z"/>
			<g>
				<path fill="#FFFFFF" d="M7.8,0.9l3.6,4L9.7,9.9L4.5,11l-3.6-4L2.6,2L7.8,0.9 M8.1,0L7.6,0.1L2.4,1.2L1.9,1.3L1.8,1.7L0.1,6.8
					L0,7.3l0.3,0.3l3.6,4l0.3,0.3l0.5-0.1l5.2-1.1l0.5-0.1l0.1-0.4l1.7-5.1l0.1-0.4l-0.3-0.3l-3.6-4L8.1,0L8.1,0z"/>
			</g>
			<path fill="#FFFFFF" d="M9.9,10.8l3.6,4l-1.7,5.1L6.6,21L3,17l1.7-5.1L9.9,10.8 M10.2,9.9L9.7,10l-5.3,1.1L4,11.2l-0.1,0.4
				l-1.7,5.1l-0.1,0.4l0.3,0.3l3.6,4l0.3,0.3l0.5-0.1l5.3-1.1l0.5-0.1l0.1-0.4l1.7-5.1l0.1-0.4l-0.3-0.3l-3.6-4L10.2,9.9L10.2,9.9z"
				/>
		</g>
		<g>
			<linearGradient id="SVGID_1_" gradientUnits="userSpaceOnUse" x1="1.4772" y1="4.4034" x2="11.0337" y2="7.5132">
				<stop  offset="3.571429e-02" style="stop-color:#FFFFFF"/>
				<stop  offset="0.4737" style="stop-color:#FFFFFF;stop-opacity:0"/>
			</linearGradient>
			<path fill="url(#SVGID_1_)" d="M8.1,0.4L2.4,1.6L0.6,7.2l3.9,4.3l5.7-1.2l1.8-5.5L8.1,0.4z M6.1,6L2.6,2l0,0l5.2-1.1l3.6,4l0,0
				L6.1,6z"/>
			<linearGradient id="SVGID_2_" gradientUnits="userSpaceOnUse" x1="11.1238" y1="7.5346" x2="20.6803" y2="10.6445">
				<stop  offset="3.571429e-02" style="stop-color:#FFFFFF"/>
				<stop  offset="0.4737" style="stop-color:#FFFFFF;stop-opacity:0"/>
			</linearGradient>
			<path fill="url(#SVGID_2_)" d="M17.7,3.6L12,4.8l-1.8,5.5l3.9,4.3l5.7-1.2l1.8-5.5L17.7,3.6z M15.8,9.1l-3.6-4l0,0L17.4,4L21,8
				l0,0L15.8,9.1z"/>
			<linearGradient id="SVGID_3_" gradientUnits="userSpaceOnUse" x1="3.5867" y1="14.3123" x2="13.1433" y2="17.4222">
				<stop  offset="3.571429e-02" style="stop-color:#FFFFFF"/>
				<stop  offset="0.4737" style="stop-color:#FFFFFF;stop-opacity:0"/>
			</linearGradient>
			<path fill="url(#SVGID_3_)" d="M10.2,10.4l-5.7,1.2l-1.8,5.5l3.9,4.3l5.7-1.2l1.8-5.5L10.2,10.4z M8.2,15.9l-3.6-4l0,0l5.2-1.1
				l3.6,4l0,0L8.2,15.9z"/>
		</g>
	</g>
</g>
</svg>
